<svg id="Layer_1" data-name="Layer 1" xmlns="http://www.w3.org/2000/svg" viewBox="0 0 431.6 115.97"><defs><style>.cls-1{fill:#ed2517;}</style></defs><title>netflix-seeklogo</title><path class="cls-1" d="M366.41,227H348.22c0,24.73-.07,40.75-.1,65.48-7.82-24.13-15.64-40.11-23.48-65.48H307.18V343c5.89-.84,12.2-1.65,18.11-2.42,0-24.23,0-39.12,0-63.35,8.12,23.85,13.11,37.91,21.21,60.58,6.34-.72,13.32-1.62,19.67-2.26q.11-54.24.19-108.49" transform="translate(-70.64 -227.03)"/><path class="cls-1" d="M434.34,227H384q-.1,53.49-.2,107,25.28-2.3,50.6-3.76c0-5.21,0-12.7,0-17.92-11,.68-21.48,1.38-32.42,2.12,0-9.59,0-17.51.06-27.1,8-.14,16.44,0,24.6-.16,0-5.24,0-12.76,0-18-8.09.15-16.64.17-24.6.32,0-9.59,0-14.85.05-24.43,5-.06,9.93-.07,14.83-.07h5.15c4.09,0,8.19,0,12.36,0,0-5.21-.12-12.7-.11-17.92" transform="translate(-70.64 -227.03)"/><path class="cls-1" d="M502.25,227.11h-56.1c0,5.17,0,12.63,0,17.81h2.42c2.43,0,4.87,0,7.31,0s4.87.05,7.31.05H465c0,28.74-.08,55-.11,83.73,5.93-.22,12.28-.4,18.22-.55,0-28.59.05-54.68.08-83.27l19-.05c0-5.09,0-12.67,0-17.77" transform="translate(-70.64 -227.03)"/><path class="cls-1" d="M121.25,227.08H70.66q0,50.34,0,100.67h5.92c4,0,8.12,0,12.11.05,0-14.25,0-27.24,0-41.48h3l7.14,0,7.2,0c2.46,0,4.9,0,7.29.05,0-5.11,0-12.7,0-17.81-2.25,0-4.55,0-6.87,0l-7.51,0H88.65c0-9.15,0-14.32,0-23.48h17.91l14.71,0c0-5.12,0-12.87,0-18" transform="translate(-70.64 -227.03)"/><path class="cls-1" d="M133.05,227.16c0,33.88-.11,67.76-.07,101.64,16.17.61,33.17,1.26,49.32,2.38,0-5.22,0-12.71,0-17.92-10.22-.6-20.86-1.32-31.1-1.75,0-29,.12-55.34.07-84.35H133.05" transform="translate(-70.64 -227.03)"/><path class="cls-1" d="M197.23,227.16l.21,105.12c5.92.46,12.05,1,18,1.47q0-53.25,0-106.59H197.23" transform="translate(-70.64 -227.03)"/><path class="cls-1" d="M231,227.16c7.27,17.72,13.92,35.49,21.31,54.3-7.68,18.07-15.49,36-23.16,53.36,6.35.63,12.92,1.55,19.27,2.25,4.55-11.16,8.7-19.76,13.25-31.22,4.55,12.21,8.69,21.65,13.23,34.26,6.33.82,14.55,2,20.87,2.9-7.67-20.51-16.06-41.86-23.77-61.24,7.68-18.2,15.52-35.57,23.5-54.6H275.65c-4.92,11.76-8.31,19.32-13,30.51-4.4-11.65-7.35-19.19-11.75-30.51H231" transform="translate(-70.64 -227.03)"/></svg>