<svg id="svg2" xmlns="http://www.w3.org/2000/svg" xmlns:xlink="http://www.w3.org/1999/xlink" viewBox="0 0 1374.58 2492.39"><defs><style>.cls-1{fill:#b1060f;stroke:#000;stroke-miterlimit:13.1;stroke-width:3.27px;}.cls-2{fill:url(#radial-gradient);}.cls-3{fill:#e50914;}</style><radialGradient id="radial-gradient" cx="18075.78" cy="1688.46" r="368.72" gradientTransform="matrix(0.23, -0.08, 2.94, 8.48, -8475.88, -11636.45)" gradientUnits="userSpaceOnUse"><stop offset="0"/><stop offset="1" stop-opacity="0"/></radialGradient></defs><title>netflix-icon</title><g id="layer1"><g id="g4182"><g id="g5747"><path id="path4155" class="cls-1" d="M888.15,7.37l-1,550.05-1,550.05L841,979.78v-.32L782.39,2204c57.63,162.39,88.4,249.16,88.73,249.48s33.07,2.3,72.69,4.26c119.83,5.89,268.47,18.66,381.43,32.74,26.19,3.28,48.45,4.91,50.09,3.6s2-561.18,1.64-1244.48L1376,7.37Z" transform="translate(-4.14 -3.77)"/><path id="path4157" class="cls-1" d="M5.78,5.74v1243.5c0,684,.65,1244.16,1.63,1245.14s43.22-3.27,94.3-8.84,121.47-12.77,156.5-15.72c53.69-4.58,214.78-14.73,233.11-15.06,5.57,0,5.9-27.83,6.55-526.8l1-526.8,39,110c5.89,17,7.85,22.26,13.75,39l58.6-1224.19c-12.44-35-5.89-16.69-20-56.64-47.8-135.22-88.4-249.48-90-254.72l-3.27-9.17H5.78Z" transform="translate(-4.14 -3.77)"/><path id="path5715" class="cls-1" d="M888.15,7.37l-1,550.05-1,550.05L841,979.78v-.32L782.39,2204c57.63,162.39,88.4,249.16,88.73,249.48s33.07,2.3,72.69,4.26c119.83,5.89,268.47,18.66,381.43,32.74,26.19,3.28,48.45,4.91,50.09,3.6s2-561.18,1.64-1244.48L1376,7.37Z" transform="translate(-4.14 -3.77)"/><path id="path5717" class="cls-1" d="M5.78,5.74v1243.5c0,684,.65,1244.16,1.63,1245.14s43.22-3.27,94.3-8.84,121.47-12.77,156.5-15.72c53.69-4.58,214.78-14.73,233.11-15.06,5.57,0,5.9-27.83,6.55-526.8l1-526.8,39,110c5.89,17,7.85,22.26,13.75,39l58.6-1224.19c-12.44-35-5.89-16.69-20-56.64-47.8-135.22-88.4-249.48-90-254.72l-3.27-9.17H5.78Z" transform="translate(-4.14 -3.77)"/><path id="path5719" class="cls-2" d="M5.78,5.74v698l491.77,1304.4c0-29.8,0-46.17.32-80.22l1-526.8,39,110c216.09,612.91,332.32,941.63,333,942.28.33.33,33.07,2.3,72.69,4.26,119.83,5.89,268.47,18.66,381.43,32.74,26.19,3.28,48.46,4.91,50.09,3.6,1-1,1.64-275.35,1.64-662.67L887.49,424.17l-.33,133.25-1,550.05L841,979.78C796.8,855,767.33,771.55,589.55,269.3c-47.8-135.22-88.4-249.48-90-254.72l-3.27-9.17H5.78v.33Z" transform="translate(-4.14 -3.77)"/><path id="path5721" class="cls-3" d="M5.78,5.74l492.75,1396.4v-.65l39,110c216.42,612.58,332.65,941.3,333.3,941.95.33.33,33.07,2.3,72.69,4.26,119.83,5.89,268.47,18.66,381.43,32.74,25.87,3.28,48.46,4.91,49.77,3.6L886.18,1107.14v.33L841,979.78C796.8,855,767.33,771.55,589.55,269.3c-47.8-135.22-88.4-249.48-90-254.72l-3.27-9.17H251L5.78,5.74Z" transform="translate(-4.14 -3.77)"/></g></g></g></svg>